<mxfile host="Electron" modified="2024-04-05T18:59:16.010Z" agent="Mozilla/5.0 (X11; Linux x86_64) AppleWebKit/537.36 (KHTML, like Gecko) draw.io/24.1.0 Chrome/120.0.6099.109 Electron/28.1.0 Safari/537.36" etag="c5DYx0Q94wnJ7Ns6u5sr" version="24.1.0" type="device" pages="4">
  <diagram id="dU4-kTXpLl40XRwVJ4kh" name="capas">
    <mxGraphModel dx="2107" dy="663" grid="1" gridSize="10" guides="1" tooltips="1" connect="1" arrows="1" fold="1" page="1" pageScale="1" pageWidth="827" pageHeight="1169" math="0" shadow="0">
      <root>
        <mxCell id="0" />
        <mxCell id="1" parent="0" />
        <mxCell id="2_E506fmxOmWBXWBcFJJ-1" value="ORG SF" style="rounded=1;whiteSpace=wrap;html=1;verticalAlign=top;" parent="1" vertex="1">
          <mxGeometry x="110" y="570" width="530" height="130" as="geometry" />
        </mxCell>
        <mxCell id="2_E506fmxOmWBXWBcFJJ-2" value="Service Cloud" style="ellipse;shape=cloud;whiteSpace=wrap;html=1;fillColor=#dae8fc;strokeColor=#6c8ebf;" parent="1" vertex="1">
          <mxGeometry x="265" y="610" width="120" height="80" as="geometry" />
        </mxCell>
        <mxCell id="2_E506fmxOmWBXWBcFJJ-3" value="Sales Cloud" style="ellipse;shape=cloud;whiteSpace=wrap;html=1;fillColor=#dae8fc;strokeColor=#6c8ebf;" parent="1" vertex="1">
          <mxGeometry x="130" y="610" width="120" height="80" as="geometry" />
        </mxCell>
        <mxCell id="2_E506fmxOmWBXWBcFJJ-5" value="ProductCategory&lt;br&gt;ProductCatalogo&lt;div&gt;&lt;br/&gt;&lt;/div&gt;" style="shape=cylinder3;whiteSpace=wrap;html=1;boundedLbl=1;backgroundOutline=1;size=15;fillColor=#fff2cc;strokeColor=#d6b656;" parent="1" vertex="1">
          <mxGeometry x="460" y="730" width="180" height="120" as="geometry" />
        </mxCell>
        <mxCell id="2_E506fmxOmWBXWBcFJJ-6" value="ORG SF" style="rounded=1;whiteSpace=wrap;html=1;verticalAlign=top;" parent="1" vertex="1">
          <mxGeometry x="-490" y="570" width="545" height="130" as="geometry" />
        </mxCell>
        <mxCell id="2_E506fmxOmWBXWBcFJJ-7" value="Service Cloud" style="ellipse;shape=cloud;whiteSpace=wrap;html=1;fillColor=#dae8fc;strokeColor=#6c8ebf;" parent="1" vertex="1">
          <mxGeometry x="-330" y="610" width="120" height="80" as="geometry" />
        </mxCell>
        <mxCell id="2_E506fmxOmWBXWBcFJJ-8" value="Sales Cloud" style="ellipse;shape=cloud;whiteSpace=wrap;html=1;fillColor=#dae8fc;strokeColor=#6c8ebf;" parent="1" vertex="1">
          <mxGeometry x="-455" y="610" width="120" height="80" as="geometry" />
        </mxCell>
        <mxCell id="2_E506fmxOmWBXWBcFJJ-9" value="Industries&lt;br&gt;comm" style="ellipse;shape=cloud;whiteSpace=wrap;html=1;fillColor=#e1d5e7;strokeColor=#9673a6;" parent="1" vertex="1">
          <mxGeometry x="-130" y="610" width="120" height="80" as="geometry" />
        </mxCell>
        <mxCell id="2_E506fmxOmWBXWBcFJJ-10" value="Account&lt;br&gt;Product&lt;br&gt;Lead&lt;br&gt;Opportunity&lt;br&gt;Case&lt;br&gt;..." style="shape=cylinder3;whiteSpace=wrap;html=1;boundedLbl=1;backgroundOutline=1;size=15;fillColor=#dae8fc;strokeColor=#6c8ebf;" parent="1" vertex="1">
          <mxGeometry x="-400" y="730" width="110" height="120" as="geometry" />
        </mxCell>
        <mxCell id="2_E506fmxOmWBXWBcFJJ-11" value="Category Catalog..." style="shape=cylinder3;whiteSpace=wrap;html=1;boundedLbl=1;backgroundOutline=1;size=15;fillColor=#e1d5e7;strokeColor=#9673a6;" parent="1" vertex="1">
          <mxGeometry x="-170" y="735" width="180" height="125" as="geometry" />
        </mxCell>
        <mxCell id="2_E506fmxOmWBXWBcFJJ-12" value="Custom" style="rounded=1;whiteSpace=wrap;html=1;verticalAlign=top;" parent="1" vertex="1">
          <mxGeometry x="-490" y="390" width="1140" height="130" as="geometry" />
        </mxCell>
        <mxCell id="2_E506fmxOmWBXWBcFJJ-13" value="App de Ventas" style="text;html=1;align=center;verticalAlign=middle;whiteSpace=wrap;rounded=0;" parent="1" vertex="1">
          <mxGeometry y="360" width="140" height="30" as="geometry" />
        </mxCell>
        <mxCell id="2_E506fmxOmWBXWBcFJJ-14" value="Component Library" style="rounded=1;whiteSpace=wrap;html=1;fillColor=#f8cecc;strokeColor=#b85450;" parent="1" vertex="1">
          <mxGeometry x="-455" y="420" width="500" height="70" as="geometry" />
        </mxCell>
        <mxCell id="2_E506fmxOmWBXWBcFJJ-17" value="CPQ" style="ellipse;shape=cloud;whiteSpace=wrap;html=1;fillColor=#fff2cc;strokeColor=#d6b656;" parent="1" vertex="1">
          <mxGeometry x="470" y="605" width="120" height="80" as="geometry" />
        </mxCell>
        <mxCell id="2_E506fmxOmWBXWBcFJJ-18" value="Account&lt;br&gt;Product&lt;br&gt;Lead&lt;br&gt;Opportunity&lt;br&gt;Case&lt;br&gt;..." style="shape=cylinder3;whiteSpace=wrap;html=1;boundedLbl=1;backgroundOutline=1;size=15;fillColor=#dae8fc;strokeColor=#6c8ebf;" parent="1" vertex="1">
          <mxGeometry x="220" y="740" width="110" height="120" as="geometry" />
        </mxCell>
        <mxCell id="2_E506fmxOmWBXWBcFJJ-19" value="Apis" style="rounded=1;whiteSpace=wrap;html=1;fillColor=#f8cecc;strokeColor=#b85450;" parent="1" vertex="1">
          <mxGeometry x="90" y="420" width="500" height="70" as="geometry" />
        </mxCell>
      </root>
    </mxGraphModel>
  </diagram>
  <diagram id="7k5K3nic8aGUpc_OB4C8" name="app">
    <mxGraphModel dx="4532" dy="1949" grid="1" gridSize="10" guides="1" tooltips="1" connect="1" arrows="1" fold="1" page="1" pageScale="1" pageWidth="827" pageHeight="1169" math="0" shadow="0">
      <root>
        <mxCell id="0" />
        <mxCell id="1" parent="0" />
        <mxCell id="Hz9bEaQ08Jo-a7barStr-1" value="OrderHeader" style="rounded=1;whiteSpace=wrap;html=1;verticalAlign=top;fontStyle=1;fillColor=#f5f5f5;fontColor=#333333;strokeColor=#666666;dashed=1;" parent="1" vertex="1">
          <mxGeometry x="-2690" y="20" width="854" height="200" as="geometry" />
        </mxCell>
        <mxCell id="Hz9bEaQ08Jo-a7barStr-2" value="" style="shape=cylinder3;whiteSpace=wrap;html=1;boundedLbl=1;backgroundOutline=1;size=15;rotation=89;fillColor=#d5e8d4;strokeColor=#82b366;" parent="1" vertex="1">
          <mxGeometry x="-2675" y="612" width="90" height="140" as="geometry" />
        </mxCell>
        <mxCell id="Hz9bEaQ08Jo-a7barStr-3" value="orderAccount" style="rounded=1;whiteSpace=wrap;html=1;fillColor=#f5f5f5;fontColor=#333333;strokeColor=#666666;dashed=1;fontStyle=1;verticalAlign=top;" parent="1" vertex="1">
          <mxGeometry x="-2640" y="130" width="120" height="60" as="geometry" />
        </mxCell>
        <mxCell id="Hz9bEaQ08Jo-a7barStr-4" value="cartSummary" style="rounded=1;whiteSpace=wrap;html=1;fillColor=#f5f5f5;fontColor=#333333;strokeColor=#666666;dashed=1;fontStyle=1;verticalAlign=top;" parent="1" vertex="1">
          <mxGeometry x="-2481" y="130" width="120" height="60" as="geometry" />
        </mxCell>
        <mxCell id="Hz9bEaQ08Jo-a7barStr-5" style="edgeStyle=orthogonalEdgeStyle;rounded=0;orthogonalLoop=1;jettySize=auto;html=1;" parent="1" source="Hz9bEaQ08Jo-a7barStr-6" target="Hz9bEaQ08Jo-a7barStr-2" edge="1">
          <mxGeometry relative="1" as="geometry" />
        </mxCell>
        <mxCell id="Hz9bEaQ08Jo-a7barStr-6" value="ProdictFilter" style="rounded=1;whiteSpace=wrap;html=1;verticalAlign=top;fontStyle=1;fillColor=#f5f5f5;fontColor=#333333;strokeColor=#666666;dashed=1;" parent="1" vertex="1">
          <mxGeometry x="-2720" y="450" width="180" height="160" as="geometry" />
        </mxCell>
        <mxCell id="Hz9bEaQ08Jo-a7barStr-7" value="ProductGrid" style="rounded=1;whiteSpace=wrap;html=1;verticalAlign=top;fontStyle=1;dashed=1;fillColor=#f5f5f5;fontColor=#333333;strokeColor=#666666;" parent="1" vertex="1">
          <mxGeometry x="-2501" y="440" width="641" height="360" as="geometry" />
        </mxCell>
        <mxCell id="Hz9bEaQ08Jo-a7barStr-8" value="ProductCard" style="rounded=1;whiteSpace=wrap;html=1;fillColor=#f5f5f5;fontColor=#333333;strokeColor=#666666;dashed=1;verticalAlign=top;fontStyle=1" parent="1" vertex="1">
          <mxGeometry x="-2107.5" y="640" width="200" height="130" as="geometry" />
        </mxCell>
        <mxCell id="Hz9bEaQ08Jo-a7barStr-9" style="edgeStyle=orthogonalEdgeStyle;rounded=0;orthogonalLoop=1;jettySize=auto;html=1;" parent="1" source="Hz9bEaQ08Jo-a7barStr-10" target="Hz9bEaQ08Jo-a7barStr-14" edge="1">
          <mxGeometry relative="1" as="geometry" />
        </mxCell>
        <mxCell id="Hz9bEaQ08Jo-a7barStr-54" value="Add Product" style="edgeLabel;html=1;align=center;verticalAlign=middle;resizable=0;points=[];" parent="Hz9bEaQ08Jo-a7barStr-9" vertex="1" connectable="0">
          <mxGeometry x="-0.3426" relative="1" as="geometry">
            <mxPoint as="offset" />
          </mxGeometry>
        </mxCell>
        <mxCell id="Hz9bEaQ08Jo-a7barStr-10" value="addToCart" style="rounded=1;whiteSpace=wrap;html=1;fillColor=#dae8fc;strokeColor=#6c8ebf;fontStyle=1;verticalAlign=top;" parent="1" vertex="1">
          <mxGeometry x="-2077.5" y="730" width="110" height="25" as="geometry" />
        </mxCell>
        <mxCell id="Hz9bEaQ08Jo-a7barStr-11" style="edgeStyle=orthogonalEdgeStyle;rounded=0;orthogonalLoop=1;jettySize=auto;html=1;entryX=0.002;entryY=0.674;entryDx=0;entryDy=0;entryPerimeter=0;" parent="1" source="Hz9bEaQ08Jo-a7barStr-2" target="Hz9bEaQ08Jo-a7barStr-7" edge="1">
          <mxGeometry relative="1" as="geometry" />
        </mxCell>
        <mxCell id="Hz9bEaQ08Jo-a7barStr-12" style="edgeStyle=orthogonalEdgeStyle;rounded=0;orthogonalLoop=1;jettySize=auto;html=1;" parent="1" source="Hz9bEaQ08Jo-a7barStr-14" target="Hz9bEaQ08Jo-a7barStr-1" edge="1">
          <mxGeometry relative="1" as="geometry">
            <Array as="points">
              <mxPoint x="-1690" y="260" />
              <mxPoint x="-1690" y="120" />
            </Array>
          </mxGeometry>
        </mxCell>
        <mxCell id="Hz9bEaQ08Jo-a7barStr-13" style="edgeStyle=orthogonalEdgeStyle;rounded=0;orthogonalLoop=1;jettySize=auto;html=1;" parent="1" source="Hz9bEaQ08Jo-a7barStr-14" target="Hz9bEaQ08Jo-a7barStr-7" edge="1">
          <mxGeometry relative="1" as="geometry">
            <Array as="points">
              <mxPoint x="-1730" y="660" />
            </Array>
          </mxGeometry>
        </mxCell>
        <mxCell id="Hz9bEaQ08Jo-a7barStr-53" value="Acount Id" style="edgeLabel;html=1;align=center;verticalAlign=middle;resizable=0;points=[];" parent="Hz9bEaQ08Jo-a7barStr-13" vertex="1" connectable="0">
          <mxGeometry x="0.289" y="-3" relative="1" as="geometry">
            <mxPoint as="offset" />
          </mxGeometry>
        </mxCell>
        <mxCell id="Hz9bEaQ08Jo-a7barStr-14" value="" style="shape=cylinder3;whiteSpace=wrap;html=1;boundedLbl=1;backgroundOutline=1;size=15;rotation=89;fillColor=#d5e8d4;strokeColor=#82b366;" parent="1" vertex="1">
          <mxGeometry x="-1780" y="450" width="120" height="160" as="geometry" />
        </mxCell>
        <mxCell id="Hz9bEaQ08Jo-a7barStr-15" value="orderPayment" style="rounded=1;whiteSpace=wrap;html=1;fillColor=#f5f5f5;fontColor=#333333;strokeColor=#666666;dashed=1;verticalAlign=top;fontStyle=1" parent="1" vertex="1">
          <mxGeometry x="-2323" y="130" width="120" height="60" as="geometry" />
        </mxCell>
        <mxCell id="Hz9bEaQ08Jo-a7barStr-16" style="edgeStyle=orthogonalEdgeStyle;rounded=0;orthogonalLoop=1;jettySize=auto;html=1;entryX=0.019;entryY=0.608;entryDx=0;entryDy=0;entryPerimeter=0;" parent="1" source="Hz9bEaQ08Jo-a7barStr-15" target="Hz9bEaQ08Jo-a7barStr-14" edge="1">
          <mxGeometry relative="1" as="geometry" />
        </mxCell>
        <mxCell id="Hz9bEaQ08Jo-a7barStr-18" value="Order" style="shape=cylinder3;whiteSpace=wrap;html=1;boundedLbl=1;backgroundOutline=1;size=15;fillColor=#d5e8d4;strokeColor=#82b366;" parent="1" vertex="1">
          <mxGeometry x="-1630" y="-110" width="190" height="220" as="geometry" />
        </mxCell>
        <mxCell id="Hz9bEaQ08Jo-a7barStr-65" style="edgeStyle=orthogonalEdgeStyle;rounded=0;orthogonalLoop=1;jettySize=auto;html=1;" parent="1" source="Hz9bEaQ08Jo-a7barStr-19" target="Hz9bEaQ08Jo-a7barStr-18" edge="1">
          <mxGeometry relative="1" as="geometry" />
        </mxCell>
        <mxCell id="Hz9bEaQ08Jo-a7barStr-19" value="Checkout" style="rounded=1;whiteSpace=wrap;html=1;fillColor=#dae8fc;strokeColor=#6c8ebf;" parent="1" vertex="1">
          <mxGeometry x="-1970" y="100" width="110" height="30" as="geometry" />
        </mxCell>
        <mxCell id="Hz9bEaQ08Jo-a7barStr-64" style="edgeStyle=orthogonalEdgeStyle;rounded=0;orthogonalLoop=1;jettySize=auto;html=1;" parent="1" source="Hz9bEaQ08Jo-a7barStr-20" target="Hz9bEaQ08Jo-a7barStr-18" edge="1">
          <mxGeometry relative="1" as="geometry" />
        </mxCell>
        <mxCell id="Hz9bEaQ08Jo-a7barStr-20" value="Save&amp;nbsp;" style="rounded=1;whiteSpace=wrap;html=1;fillColor=#dae8fc;strokeColor=#6c8ebf;" parent="1" vertex="1">
          <mxGeometry x="-1970" y="60" width="110" height="30" as="geometry" />
        </mxCell>
        <mxCell id="Hz9bEaQ08Jo-a7barStr-21" value="orderSummary" style="rounded=1;whiteSpace=wrap;html=1;fillColor=#f5f5f5;fontColor=#333333;strokeColor=#666666;dashed=1;fontStyle=1;verticalAlign=top;" parent="1" vertex="1">
          <mxGeometry x="-2640" y="50" width="120" height="60" as="geometry" />
        </mxCell>
        <mxCell id="Hz9bEaQ08Jo-a7barStr-22" value="orderDelivery" style="rounded=1;whiteSpace=wrap;html=1;fillColor=#f5f5f5;fontColor=#333333;strokeColor=#666666;dashed=1;verticalAlign=top;fontStyle=1" parent="1" vertex="1">
          <mxGeometry x="-2150" y="130" width="120" height="60" as="geometry" />
        </mxCell>
        <mxCell id="Hz9bEaQ08Jo-a7barStr-23" value="orderDetail" style="rounded=1;whiteSpace=wrap;html=1;fillColor=#f5f5f5;fontColor=#333333;strokeColor=#666666;verticalAlign=top;fontStyle=1;dashed=1;" parent="1" vertex="1">
          <mxGeometry x="-1600" y="430" width="690" height="360" as="geometry" />
        </mxCell>
        <mxCell id="Hz9bEaQ08Jo-a7barStr-24" value="orderAknowledge" style="rounded=1;whiteSpace=wrap;html=1;verticalAlign=top;fontStyle=1;fillColor=#f5f5f5;fontColor=#333333;strokeColor=#666666;dashed=1;" parent="1" vertex="1">
          <mxGeometry x="-1139" y="480" width="120" height="60" as="geometry" />
        </mxCell>
        <mxCell id="Hz9bEaQ08Jo-a7barStr-25" value="showCart" style="rounded=1;whiteSpace=wrap;html=1;arcSize=7;verticalAlign=top;fontStyle=1;fillColor=#f5f5f5;fontColor=#333333;strokeColor=#666666;dashed=1;" parent="1" vertex="1">
          <mxGeometry x="-1549" y="470" width="270" height="120" as="geometry" />
        </mxCell>
        <mxCell id="Hz9bEaQ08Jo-a7barStr-26" value="orderBilling" style="rounded=1;whiteSpace=wrap;html=1;verticalAlign=top;fontStyle=1;fillColor=#f5f5f5;fontColor=#333333;strokeColor=#666666;dashed=1;" parent="1" vertex="1">
          <mxGeometry x="-1139" y="580" width="120" height="60" as="geometry" />
        </mxCell>
        <mxCell id="Hz9bEaQ08Jo-a7barStr-27" value="orderPayment" style="rounded=1;whiteSpace=wrap;html=1;verticalAlign=top;fontStyle=1;fillColor=#f5f5f5;fontColor=#333333;strokeColor=#666666;dashed=1;" parent="1" vertex="1">
          <mxGeometry x="-1139" y="670" width="120" height="60" as="geometry" />
        </mxCell>
        <mxCell id="Hz9bEaQ08Jo-a7barStr-37" value="Recomendados ?" style="text;html=1;align=center;verticalAlign=middle;whiteSpace=wrap;rounded=0;" parent="1" vertex="1">
          <mxGeometry x="-2440" y="400" width="190" height="30" as="geometry" />
        </mxCell>
        <mxCell id="Hz9bEaQ08Jo-a7barStr-57" style="edgeStyle=orthogonalEdgeStyle;rounded=0;orthogonalLoop=1;jettySize=auto;html=1;exitX=0.5;exitY=1;exitDx=0;exitDy=0;" parent="1" source="Hz9bEaQ08Jo-a7barStr-62" target="Hz9bEaQ08Jo-a7barStr-56" edge="1">
          <mxGeometry relative="1" as="geometry">
            <mxPoint x="-2283" y="-260.0000000000002" as="sourcePoint" />
          </mxGeometry>
        </mxCell>
        <mxCell id="Hz9bEaQ08Jo-a7barStr-49" value="ProductFilter Channel" style="text;html=1;align=center;verticalAlign=middle;whiteSpace=wrap;rounded=0;" parent="1" vertex="1">
          <mxGeometry x="-2675" y="667" width="60" height="30" as="geometry" />
        </mxCell>
        <mxCell id="Hz9bEaQ08Jo-a7barStr-50" value="Cart channel" style="text;html=1;align=center;verticalAlign=middle;whiteSpace=wrap;rounded=0;" parent="1" vertex="1">
          <mxGeometry x="-1760" y="517" width="60" height="53" as="geometry" />
        </mxCell>
        <mxCell id="Hz9bEaQ08Jo-a7barStr-52" value="Order By" style="text;html=1;align=center;verticalAlign=middle;whiteSpace=wrap;rounded=0;" parent="1" vertex="1">
          <mxGeometry x="-2010" y="487" width="105" height="30" as="geometry" />
        </mxCell>
        <mxCell id="Hz9bEaQ08Jo-a7barStr-60" style="edgeStyle=orthogonalEdgeStyle;rounded=0;orthogonalLoop=1;jettySize=auto;html=1;" parent="1" source="Hz9bEaQ08Jo-a7barStr-56" target="Hz9bEaQ08Jo-a7barStr-18" edge="1">
          <mxGeometry relative="1" as="geometry" />
        </mxCell>
        <mxCell id="Hz9bEaQ08Jo-a7barStr-56" value="Si viene una order" style="rhombus;whiteSpace=wrap;html=1;" parent="1" vertex="1">
          <mxGeometry x="-2321.5" y="-220" width="97" height="100" as="geometry" />
        </mxCell>
        <mxCell id="Hz9bEaQ08Jo-a7barStr-61" style="edgeStyle=orthogonalEdgeStyle;rounded=0;orthogonalLoop=1;jettySize=auto;html=1;entryX=0.488;entryY=-0.009;entryDx=0;entryDy=0;entryPerimeter=0;" parent="1" source="Hz9bEaQ08Jo-a7barStr-56" target="Hz9bEaQ08Jo-a7barStr-1" edge="1">
          <mxGeometry relative="1" as="geometry" />
        </mxCell>
        <mxCell id="Hz9bEaQ08Jo-a7barStr-62" value="" style="ellipse;whiteSpace=wrap;html=1;aspect=fixed;" parent="1" vertex="1">
          <mxGeometry x="-2313" y="-340" width="80" height="80" as="geometry" />
        </mxCell>
        <mxCell id="FXiW-Y6WXA-lqWRFRbQV-1" value="&lt;h1 style=&quot;margin-top: 0px;&quot;&gt;Si la orden ya esta cerrada (checkout)&lt;/h1&gt;" style="text;html=1;whiteSpace=wrap;overflow=hidden;rounded=0;fillColor=#fff2cc;strokeColor=#d6b656;align=center;" parent="1" vertex="1">
          <mxGeometry x="-1550" y="290" width="640" height="50" as="geometry" />
        </mxCell>
        <mxCell id="FXiW-Y6WXA-lqWRFRbQV-2" value="&lt;h1 style=&quot;margin-top: 0px;&quot;&gt;Si la orden esta abierta o es nueva&lt;/h1&gt;" style="text;html=1;whiteSpace=wrap;overflow=hidden;rounded=0;align=center;fillColor=#fff2cc;strokeColor=#d6b656;" parent="1" vertex="1">
          <mxGeometry x="-2690" y="290" width="850" height="50" as="geometry" />
        </mxCell>
        <mxCell id="FXiW-Y6WXA-lqWRFRbQV-5" value="&lt;h1 style=&quot;margin-top: 0px;&quot;&gt;Si la orden ya esta curso&lt;/h1&gt;" style="text;html=1;whiteSpace=wrap;overflow=hidden;rounded=0;fillColor=#fff2cc;strokeColor=#d6b656;align=center;" parent="1" vertex="1">
          <mxGeometry x="-828" y="293.5" width="640" height="50" as="geometry" />
        </mxCell>
        <mxCell id="FXiW-Y6WXA-lqWRFRbQV-6" value="orderDetail" style="rounded=1;whiteSpace=wrap;html=1;fillColor=#f5f5f5;fontColor=#333333;strokeColor=#666666;verticalAlign=top;fontStyle=1;dashed=1;" parent="1" vertex="1">
          <mxGeometry x="-838" y="433.5" width="690" height="360" as="geometry" />
        </mxCell>
        <mxCell id="FXiW-Y6WXA-lqWRFRbQV-8" value="orderTrack" style="rounded=1;whiteSpace=wrap;html=1;arcSize=7;verticalAlign=top;fontStyle=1;fillColor=#f5f5f5;fontColor=#333333;strokeColor=#666666;dashed=1;" parent="1" vertex="1">
          <mxGeometry x="-808" y="515.5" width="270" height="240" as="geometry" />
        </mxCell>
        <mxCell id="FXiW-Y6WXA-lqWRFRbQV-9" value="orderHistory" style="rounded=1;whiteSpace=wrap;html=1;arcSize=7;verticalAlign=top;fontStyle=1;fillColor=#f5f5f5;fontColor=#333333;strokeColor=#666666;dashed=1;" parent="1" vertex="1">
          <mxGeometry x="-508" y="513.5" width="270" height="240" as="geometry" />
        </mxCell>
        <mxCell id="FXiW-Y6WXA-lqWRFRbQV-11" value="PorductView" style="rounded=1;whiteSpace=wrap;html=1;fillColor=#f5f5f5;fontColor=#333333;strokeColor=#666666;dashed=1;verticalAlign=top;fontStyle=1" parent="1" vertex="1">
          <mxGeometry x="-2410" y="630" width="200" height="129" as="geometry" />
        </mxCell>
        <mxCell id="FXiW-Y6WXA-lqWRFRbQV-14" style="edgeStyle=orthogonalEdgeStyle;rounded=0;orthogonalLoop=1;jettySize=auto;html=1;" parent="1" source="FXiW-Y6WXA-lqWRFRbQV-12" target="FXiW-Y6WXA-lqWRFRbQV-11" edge="1">
          <mxGeometry relative="1" as="geometry" />
        </mxCell>
        <mxCell id="FXiW-Y6WXA-lqWRFRbQV-12" value="" style="rounded=1;whiteSpace=wrap;html=1;fillColor=#999999;strokeColor=#9673a6;" parent="1" vertex="1">
          <mxGeometry x="-2090" y="670" width="60" height="50" as="geometry" />
        </mxCell>
        <mxCell id="FXiW-Y6WXA-lqWRFRbQV-13" value="" style="ellipse;whiteSpace=wrap;html=1;aspect=fixed;" parent="1" vertex="1">
          <mxGeometry x="-2077.5" y="680" width="32.5" height="32.5" as="geometry" />
        </mxCell>
        <mxCell id="oWbdKQODhPS4GsAsdX63-1" value="Anulacion" style="rounded=1;whiteSpace=wrap;html=1;fillColor=#dae8fc;strokeColor=#6c8ebf;" vertex="1" parent="1">
          <mxGeometry x="-310" y="140" width="110" height="30" as="geometry" />
        </mxCell>
        <mxCell id="oWbdKQODhPS4GsAsdX63-6" value="Cambiar medio de pago" style="rounded=1;whiteSpace=wrap;html=1;fillColor=#dae8fc;strokeColor=#6c8ebf;" vertex="1" parent="1">
          <mxGeometry x="-540" y="140" width="170" height="30" as="geometry" />
        </mxCell>
        <mxCell id="LVf2UHLWm2gI_x5NtAkk-1" value="cartRecomendation" style="rounded=1;whiteSpace=wrap;html=1;arcSize=7;verticalAlign=top;fontStyle=1;fillColor=#f5f5f5;fontColor=#333333;strokeColor=#666666;dashed=1;" vertex="1" parent="1">
          <mxGeometry x="-1550" y="622" width="270" height="120" as="geometry" />
        </mxCell>
        <mxCell id="LVf2UHLWm2gI_x5NtAkk-2" value="Proteccion&amp;nbsp;" style="text;html=1;align=center;verticalAlign=middle;whiteSpace=wrap;rounded=0;" vertex="1" parent="1">
          <mxGeometry x="-1518" y="660" width="60" height="30" as="geometry" />
        </mxCell>
        <mxCell id="LVf2UHLWm2gI_x5NtAkk-9" value="" style="rounded=1;whiteSpace=wrap;html=1;arcSize=50;fillColor=#f5f5f5;fontColor=#333333;strokeColor=#666666;" vertex="1" parent="1">
          <mxGeometry x="-1380" y="667" width="40" height="20" as="geometry" />
        </mxCell>
        <mxCell id="LVf2UHLWm2gI_x5NtAkk-10" value="" style="ellipse;whiteSpace=wrap;html=1;aspect=fixed;fillColor=#fff2cc;strokeColor=#d6b656;" vertex="1" parent="1">
          <mxGeometry x="-1378" y="668" width="18" height="18" as="geometry" />
        </mxCell>
        <mxCell id="LVf2UHLWm2gI_x5NtAkk-13" value="" style="rounded=1;whiteSpace=wrap;html=1;arcSize=50;fillColor=#f5f5f5;fontColor=#333333;strokeColor=#666666;" vertex="1" parent="1">
          <mxGeometry x="-1380" y="710" width="40" height="20" as="geometry" />
        </mxCell>
        <mxCell id="LVf2UHLWm2gI_x5NtAkk-14" value="" style="ellipse;whiteSpace=wrap;html=1;aspect=fixed;fillColor=#fff2cc;strokeColor=#d6b656;" vertex="1" parent="1">
          <mxGeometry x="-1360" y="711" width="19" height="19" as="geometry" />
        </mxCell>
        <mxCell id="LVf2UHLWm2gI_x5NtAkk-15" value="Cargador" style="text;html=1;align=center;verticalAlign=middle;whiteSpace=wrap;rounded=0;" vertex="1" parent="1">
          <mxGeometry x="-1518" y="699" width="60" height="30" as="geometry" />
        </mxCell>
        <mxCell id="LVf2UHLWm2gI_x5NtAkk-16" style="edgeStyle=orthogonalEdgeStyle;rounded=0;orthogonalLoop=1;jettySize=auto;html=1;entryX=1.003;entryY=0.382;entryDx=0;entryDy=0;entryPerimeter=0;exitX=-0.003;exitY=0.575;exitDx=0;exitDy=0;exitPerimeter=0;" edge="1" parent="1" source="LVf2UHLWm2gI_x5NtAkk-1" target="Hz9bEaQ08Jo-a7barStr-14">
          <mxGeometry relative="1" as="geometry">
            <Array as="points">
              <mxPoint x="-1700" y="691" />
            </Array>
          </mxGeometry>
        </mxCell>
      </root>
    </mxGraphModel>
  </diagram>
  <diagram id="AYkCFZ-GGMsNC5OpTbNb" name="orderAccount">
    <mxGraphModel dx="4794" dy="947" grid="1" gridSize="10" guides="1" tooltips="1" connect="1" arrows="1" fold="1" page="1" pageScale="1" pageWidth="827" pageHeight="1169" math="0" shadow="0">
      <root>
        <mxCell id="0" />
        <mxCell id="1" parent="0" />
        <mxCell id="tq17ENaGQndbgimJtyQQ-1" value="orderAccount" style="rounded=1;whiteSpace=wrap;html=1;fillColor=#f5f5f5;fontColor=#333333;strokeColor=#666666;dashed=1;fontStyle=1;verticalAlign=top;" parent="1" vertex="1">
          <mxGeometry x="-2708" y="910" width="890" height="300" as="geometry" />
        </mxCell>
        <mxCell id="tq17ENaGQndbgimJtyQQ-2" style="edgeStyle=orthogonalEdgeStyle;rounded=0;orthogonalLoop=1;jettySize=auto;html=1;" parent="1" source="tq17ENaGQndbgimJtyQQ-6" target="tq17ENaGQndbgimJtyQQ-7" edge="1">
          <mxGeometry relative="1" as="geometry" />
        </mxCell>
        <mxCell id="tq17ENaGQndbgimJtyQQ-3" value="No" style="edgeLabel;html=1;align=center;verticalAlign=middle;resizable=0;points=[];" parent="tq17ENaGQndbgimJtyQQ-2" vertex="1" connectable="0">
          <mxGeometry x="0.0889" y="1" relative="1" as="geometry">
            <mxPoint as="offset" />
          </mxGeometry>
        </mxCell>
        <mxCell id="tq17ENaGQndbgimJtyQQ-4" style="edgeStyle=orthogonalEdgeStyle;rounded=0;orthogonalLoop=1;jettySize=auto;html=1;" parent="1" source="tq17ENaGQndbgimJtyQQ-6" target="tq17ENaGQndbgimJtyQQ-8" edge="1">
          <mxGeometry relative="1" as="geometry" />
        </mxCell>
        <mxCell id="tq17ENaGQndbgimJtyQQ-5" value="Si" style="edgeLabel;html=1;align=center;verticalAlign=middle;resizable=0;points=[];" parent="tq17ENaGQndbgimJtyQQ-4" vertex="1" connectable="0">
          <mxGeometry x="0.2138" y="-2" relative="1" as="geometry">
            <mxPoint as="offset" />
          </mxGeometry>
        </mxCell>
        <mxCell id="tq17ENaGQndbgimJtyQQ-6" value="Si tiene un carrito con Cuenta" style="rounded=1;whiteSpace=wrap;html=1;arcSize=7;shape=rhombus;perimeter=rhombusPerimeter;" parent="1" vertex="1">
          <mxGeometry x="-2688" y="1011" width="150" height="110" as="geometry" />
        </mxCell>
        <mxCell id="tq17ENaGQndbgimJtyQQ-7" value="" style="rounded=1;whiteSpace=wrap;html=1;arcSize=17;" parent="1" vertex="1">
          <mxGeometry x="-2458" y="988" width="240" height="70" as="geometry" />
        </mxCell>
        <mxCell id="tq17ENaGQndbgimJtyQQ-8" value="Datos Cuenta" style="rounded=1;whiteSpace=wrap;html=1;arcSize=10;" parent="1" vertex="1">
          <mxGeometry x="-2458" y="1087" width="240" height="60" as="geometry" />
        </mxCell>
        <mxCell id="tq17ENaGQndbgimJtyQQ-9" value="Buscar" style="rounded=1;whiteSpace=wrap;html=1;arcSize=29;" parent="1" vertex="1">
          <mxGeometry x="-2438" y="1008" width="90" height="30" as="geometry" />
        </mxCell>
        <mxCell id="tq17ENaGQndbgimJtyQQ-10" style="edgeStyle=orthogonalEdgeStyle;rounded=0;orthogonalLoop=1;jettySize=auto;html=1;" parent="1" source="tq17ENaGQndbgimJtyQQ-11" edge="1">
          <mxGeometry relative="1" as="geometry">
            <mxPoint x="-2108" y="1023" as="targetPoint" />
          </mxGeometry>
        </mxCell>
        <mxCell id="tq17ENaGQndbgimJtyQQ-11" value="Nuevo" style="rounded=1;whiteSpace=wrap;html=1;arcSize=29;" parent="1" vertex="1">
          <mxGeometry x="-2338" y="1008" width="90" height="30" as="geometry" />
        </mxCell>
        <mxCell id="tq17ENaGQndbgimJtyQQ-12" style="edgeStyle=orthogonalEdgeStyle;rounded=0;orthogonalLoop=1;jettySize=auto;html=1;entryX=1;entryY=0.75;entryDx=0;entryDy=0;" parent="1" source="tq17ENaGQndbgimJtyQQ-13" target="tq17ENaGQndbgimJtyQQ-8" edge="1">
          <mxGeometry relative="1" as="geometry">
            <Array as="points">
              <mxPoint x="-1978" y="1123" />
            </Array>
          </mxGeometry>
        </mxCell>
        <mxCell id="tq17ENaGQndbgimJtyQQ-13" value="Cuenta" style="rounded=1;whiteSpace=wrap;html=1;arcSize=10;" parent="1" vertex="1">
          <mxGeometry x="-2108" y="983" width="240" height="60" as="geometry" />
        </mxCell>
      </root>
    </mxGraphModel>
  </diagram>
  <diagram id="IZH7jzI0tOR7Qw_kK9gM" name="productFilter">
    <mxGraphModel dx="1387" dy="884" grid="1" gridSize="10" guides="1" tooltips="1" connect="1" arrows="1" fold="1" page="1" pageScale="1" pageWidth="827" pageHeight="1169" math="0" shadow="0">
      <root>
        <mxCell id="0" />
        <mxCell id="1" parent="0" />
        <mxCell id="iseQRJHAXezR1g1EGxpM-2" value="productFilter" style="rounded=1;whiteSpace=wrap;html=1;fillColor=#f5f5f5;fontColor=#333333;strokeColor=#666666;dashed=1;fontStyle=1;verticalAlign=top;arcSize=9;" vertex="1" parent="1">
          <mxGeometry x="150" y="90" width="340" height="540" as="geometry" />
        </mxCell>
        <mxCell id="bVI_Z-Cu4NctwLWhckZt-1" value="" style="rounded=1;whiteSpace=wrap;html=1;" vertex="1" parent="1">
          <mxGeometry x="230" y="240" width="150" height="30" as="geometry" />
        </mxCell>
        <mxCell id="bVI_Z-Cu4NctwLWhckZt-2" value="Catalogo" style="text;html=1;align=center;verticalAlign=middle;whiteSpace=wrap;rounded=0;fontStyle=1" vertex="1" parent="1">
          <mxGeometry x="230" y="210" width="60" height="30" as="geometry" />
        </mxCell>
        <mxCell id="bVI_Z-Cu4NctwLWhckZt-3" value="" style="rounded=1;whiteSpace=wrap;html=1;" vertex="1" parent="1">
          <mxGeometry x="230" y="330" width="150" height="30" as="geometry" />
        </mxCell>
        <mxCell id="bVI_Z-Cu4NctwLWhckZt-4" value="Categoria" style="text;html=1;align=center;verticalAlign=middle;whiteSpace=wrap;rounded=0;fontStyle=1" vertex="1" parent="1">
          <mxGeometry x="230" y="300" width="60" height="30" as="geometry" />
        </mxCell>
        <mxCell id="bVI_Z-Cu4NctwLWhckZt-5" value="" style="rounded=1;whiteSpace=wrap;html=1;" vertex="1" parent="1">
          <mxGeometry x="230" y="160" width="150" height="30" as="geometry" />
        </mxCell>
        <mxCell id="bVI_Z-Cu4NctwLWhckZt-6" value="Buscador" style="text;html=1;align=center;verticalAlign=middle;whiteSpace=wrap;rounded=0;fontStyle=1" vertex="1" parent="1">
          <mxGeometry x="230" y="130" width="60" height="30" as="geometry" />
        </mxCell>
        <mxCell id="bVI_Z-Cu4NctwLWhckZt-7" value="Precio" style="text;html=1;align=center;verticalAlign=middle;whiteSpace=wrap;rounded=0;fontStyle=1" vertex="1" parent="1">
          <mxGeometry x="230" y="390" width="60" height="30" as="geometry" />
        </mxCell>
        <mxCell id="bVI_Z-Cu4NctwLWhckZt-8" value="" style="endArrow=none;html=1;rounded=0;" edge="1" parent="1">
          <mxGeometry width="50" height="50" relative="1" as="geometry">
            <mxPoint x="230" y="450" as="sourcePoint" />
            <mxPoint x="360" y="450" as="targetPoint" />
          </mxGeometry>
        </mxCell>
        <mxCell id="bVI_Z-Cu4NctwLWhckZt-9" value="$ desde" style="text;html=1;align=center;verticalAlign=middle;whiteSpace=wrap;rounded=0;" vertex="1" parent="1">
          <mxGeometry x="220" y="460" width="60" height="30" as="geometry" />
        </mxCell>
        <mxCell id="bVI_Z-Cu4NctwLWhckZt-10" value="$ hasta" style="text;html=1;align=center;verticalAlign=middle;whiteSpace=wrap;rounded=0;" vertex="1" parent="1">
          <mxGeometry x="320" y="460" width="60" height="30" as="geometry" />
        </mxCell>
        <mxCell id="bVI_Z-Cu4NctwLWhckZt-11" value="" style="ellipse;whiteSpace=wrap;html=1;aspect=fixed;" vertex="1" parent="1">
          <mxGeometry x="290" y="440" width="20" height="20" as="geometry" />
        </mxCell>
        <mxCell id="DbL6Sf5MVQSu9xuWcuS9-2" value="En Stock" style="text;html=1;align=center;verticalAlign=middle;whiteSpace=wrap;rounded=0;fontStyle=1" vertex="1" parent="1">
          <mxGeometry x="230" y="520" width="60" height="30" as="geometry" />
        </mxCell>
        <mxCell id="Uax1vA0IrcqxrrTUq_Ll-2" value="" style="group" vertex="1" connectable="0" parent="1">
          <mxGeometry x="300" y="525" width="40" height="20" as="geometry" />
        </mxCell>
        <mxCell id="Uax1vA0IrcqxrrTUq_Ll-1" value="" style="rounded=1;whiteSpace=wrap;html=1;arcSize=50;fillColor=#f5f5f5;fontColor=#333333;strokeColor=#666666;" vertex="1" parent="Uax1vA0IrcqxrrTUq_Ll-2">
          <mxGeometry width="40" height="20" as="geometry" />
        </mxCell>
        <mxCell id="DbL6Sf5MVQSu9xuWcuS9-1" value="" style="ellipse;whiteSpace=wrap;html=1;aspect=fixed;fillColor=#fff2cc;strokeColor=#d6b656;" vertex="1" parent="Uax1vA0IrcqxrrTUq_Ll-2">
          <mxGeometry x="20" y="1" width="18" height="18" as="geometry" />
        </mxCell>
      </root>
    </mxGraphModel>
  </diagram>
</mxfile>
